<?xml version="1.0" encoding="utf-8"?>
<!-- Generator: Adobe Illustrator 16.0.0, SVG Export Plug-In . SVG Version: 6.00 Build 0)  -->
<!DOCTYPE svg PUBLIC "-//W3C//DTD SVG 1.1//EN" "http://www.w3.org/Graphics/SVG/1.1/DTD/svg11.dtd">
<svg version="1.1" id="Layer_1" xmlns="http://www.w3.org/2000/svg" xmlns:xlink="http://www.w3.org/1999/xlink" x="0px" y="0px"
	 width="848.918px" height="847.246px" viewBox="0 0 848.918 847.246" enable-background="new 0 0 848.918 847.246"
	 xml:space="preserve">
<path d="M733.218,643.372c-1.125-0.555-2.128-1.095-2.971-1.626c-73.758-46.508-135.253-85.807-204.979-129.461
	c-3.128-1.958-6.385-4.148-9.74-6.489c-23.488-16.383-51.794-40.123-74.408-43.136c-39.882-5.314-64.371,58.635-81.99,86.305
	c-36.682,57.607-69.837,109.223-103.568,161.826c-17.292,26.963-41.681,52.104-47.468,86.305c8.953,4.1,18.248,5.782,27.68,5.923
	c19.913,0.296,40.438-6.282,59.639-11.508c4.042-1.101,8.026-2.141,11.933-3.044c34.139-7.896,68.302-15.055,101.41-21.578
	c0.688-62.672,69.323-106.162,129.459-75.516c13.883,7.072,29.197,34.256,40.995,36.678c9.041,1.857,35.558-7.535,49.627-10.787
	c17.822-4.123,34.763-7.135,51.783-10.787c1.534-0.33,3.217-0.675,5.023-1.039c27.097-5.457,82.022-14.994,81.283-35.643
	C766.417,655.495,744.092,648.732,733.218,643.372z"/>
<path d="M42.873,394.895c19.404,11.294,43.877,14.302,68.126,5.193c32.243-12.112,46.598-39.974,46.566-68.33
	c-0.049-44.235-35.108-89.672-91.877-78.392c-22.567,4.485-40.437,16.871-50.93,33.433c-4.77,7.528-8.015,15.919-9.484,24.824
	C-0.791,348.376,16.282,379.417,42.873,394.895z"/>
<path d="M848.918,420.741c-5.323-38.048-36.591-60.668-58.259-84.148c-23.087-25.019-45.267-51.143-71.199-73.359
	c-64.113,29.785-125.493-19.377-126.616-77.359c0.247-14.07,4.054-28.58,12.257-42.547c-0.32-0.446-0.652-0.891-0.976-1.336
	c0.325-0.581,0.636-1.164,0.977-1.744c-17.651-24.556-39.323-48.282-64.729-75.518C522.312,45.367,487.83,1.561,460.539,0
	c-3.106,1.207-5.266,3.365-6.474,6.471c-4.364,55.344-6.163,120.731-8.629,192.031c-1.092,31.517-0.919,63.981-2.157,97.095
	c-0.681,18.163-3.956,45.047-3.807,66.925c-0.088,12.568,0.82,23.752,3.806,31.092c10.615,26.106,54.218,19.843,90.62,21.577
	c73.448,3.498,142.567,7.328,213.608,10.787c36.135,1.764,72.688,7.801,101.41-2.157c-0.138-0.987-0.304-1.958-0.477-2.924
	C848.599,420.843,848.76,420.796,848.918,420.741z"/>
<path d="M314.69,471.5c1.475-0.663,2.989-1.343,4.533-2.04c10.294-4.646,21.937-10.033,32.383-15.78
	c0.522-0.287,1.042-0.575,1.558-0.864c12.901-7.227,23.737-14.983,27.542-22.522c14.826-29.375-24.956-85.181-36.679-107.881
	c-16.357-31.67-32.391-60.606-45.312-86.306c-31.266-62.188-54.605-119.233-90.622-170.455c-7.727,1.521-13.974,6.723-19.212,14.203
	c-0.582,0.831-1.152,1.69-1.709,2.576c-0.279,0.442-0.555,0.892-0.828,1.348c-11.742,19.59-18.175,50.848-25.719,74.653
	c-11.336,35.772-23.156,71.872-30.207,94.938c63.589,35.339,43.806,161.279-39.097,162.564c-4.077,0.063-8.307-0.175-12.687-0.741
	c0,0,0,0-0.001,0c-11.178,30.563-19.41,64.471-30.207,97.094c-10.151,30.672-31.944,66.018-17.261,99.252c0,0,0,0,0.001,0
	c35.276-4.834,61.366-25.727,90.621-40.994c57.301-29.902,114.608-59.549,174.77-90.621
	C300.914,477.671,307.316,474.81,314.69,471.5z"/>
<path d="M678.462,264.155c64.683,2.251,88.366-62.494,71.052-108.547c-11.065-29.432-38.872-51.23-83.434-43.023
	c-0.9,0.166-1.807,0.344-2.721,0.534C578.574,130.788,589.406,261.055,678.462,264.155z"/>
<path d="M548.068,712.752c-15.995-13.454-37.848-20.417-61.637-17.067c-42.414,5.973-64.13,28.279-66.888,69.045
	c-1.253,18.517,2.933,34.122,10.646,46.605c30.258,48.976,114.802,49.906,138.23-9.922
	C582.313,765.945,571.447,732.415,548.068,712.752z"/>
</svg>
